<mxfile host="app.diagrams.net" agent="Mozilla/5.0 (Windows NT 10.0; Win64; x64) AppleWebKit/537.36 (KHTML, like Gecko) Chrome/140.0.0.0 Safari/537.36" version="28.2.3">
  <diagram name="Trang-1" id="JILCz1yl1YPBL9UNmIw0">
    <mxGraphModel dx="1042" dy="527" grid="1" gridSize="10" guides="1" tooltips="1" connect="1" arrows="1" fold="1" page="1" pageScale="1" pageWidth="827" pageHeight="1169" math="0" shadow="0">
      <root>
        <mxCell id="0" />
        <mxCell id="1" parent="0" />
        <mxCell id="VveRp8-pTmVOO8X9SumP-3" value="" style="edgeStyle=orthogonalEdgeStyle;rounded=0;orthogonalLoop=1;jettySize=auto;html=1;" edge="1" parent="1" source="VveRp8-pTmVOO8X9SumP-1" target="VveRp8-pTmVOO8X9SumP-2">
          <mxGeometry relative="1" as="geometry" />
        </mxCell>
        <mxCell id="VveRp8-pTmVOO8X9SumP-1" value="Bắt đầu" style="ellipse;whiteSpace=wrap;html=1;" vertex="1" parent="1">
          <mxGeometry x="340" y="10" width="120" height="80" as="geometry" />
        </mxCell>
        <mxCell id="VveRp8-pTmVOO8X9SumP-5" value="" style="edgeStyle=orthogonalEdgeStyle;rounded=0;orthogonalLoop=1;jettySize=auto;html=1;" edge="1" parent="1" source="VveRp8-pTmVOO8X9SumP-2" target="VveRp8-pTmVOO8X9SumP-4">
          <mxGeometry relative="1" as="geometry" />
        </mxCell>
        <mxCell id="VveRp8-pTmVOO8X9SumP-2" value="Nhập vào ba số nguyên a,b,c" style="shape=parallelogram;perimeter=parallelogramPerimeter;whiteSpace=wrap;html=1;fixedSize=1;" vertex="1" parent="1">
          <mxGeometry x="340" y="120" width="120" height="60" as="geometry" />
        </mxCell>
        <mxCell id="VveRp8-pTmVOO8X9SumP-7" value="" style="edgeStyle=orthogonalEdgeStyle;rounded=0;orthogonalLoop=1;jettySize=auto;html=1;" edge="1" parent="1" source="VveRp8-pTmVOO8X9SumP-4" target="VveRp8-pTmVOO8X9SumP-6">
          <mxGeometry relative="1" as="geometry" />
        </mxCell>
        <mxCell id="VveRp8-pTmVOO8X9SumP-4" value="Max=a" style="whiteSpace=wrap;html=1;" vertex="1" parent="1">
          <mxGeometry x="340" y="220" width="120" height="60" as="geometry" />
        </mxCell>
        <mxCell id="VveRp8-pTmVOO8X9SumP-9" value="" style="edgeStyle=orthogonalEdgeStyle;rounded=0;orthogonalLoop=1;jettySize=auto;html=1;entryX=-0.012;entryY=0.667;entryDx=0;entryDy=0;entryPerimeter=0;" edge="1" parent="1" source="VveRp8-pTmVOO8X9SumP-6" target="VveRp8-pTmVOO8X9SumP-8">
          <mxGeometry relative="1" as="geometry" />
        </mxCell>
        <mxCell id="VveRp8-pTmVOO8X9SumP-20" value="Y" style="edgeLabel;html=1;align=center;verticalAlign=middle;resizable=0;points=[];" vertex="1" connectable="0" parent="VveRp8-pTmVOO8X9SumP-9">
          <mxGeometry x="-0.1919" y="1" relative="1" as="geometry">
            <mxPoint as="offset" />
          </mxGeometry>
        </mxCell>
        <mxCell id="VveRp8-pTmVOO8X9SumP-6" value="Max= b" style="rhombus;whiteSpace=wrap;html=1;" vertex="1" parent="1">
          <mxGeometry x="360" y="350" width="80" height="80" as="geometry" />
        </mxCell>
        <mxCell id="VveRp8-pTmVOO8X9SumP-11" value="" style="edgeStyle=orthogonalEdgeStyle;rounded=0;orthogonalLoop=1;jettySize=auto;html=1;" edge="1" parent="1" source="VveRp8-pTmVOO8X9SumP-8" target="VveRp8-pTmVOO8X9SumP-10">
          <mxGeometry relative="1" as="geometry">
            <Array as="points">
              <mxPoint x="765" y="555" />
            </Array>
          </mxGeometry>
        </mxCell>
        <mxCell id="VveRp8-pTmVOO8X9SumP-8" value="max=b" style="whiteSpace=wrap;html=1;" vertex="1" parent="1">
          <mxGeometry x="680" y="330" width="170" height="90" as="geometry" />
        </mxCell>
        <mxCell id="VveRp8-pTmVOO8X9SumP-13" value="" style="edgeStyle=orthogonalEdgeStyle;rounded=0;orthogonalLoop=1;jettySize=auto;html=1;" edge="1" parent="1" source="VveRp8-pTmVOO8X9SumP-10" target="VveRp8-pTmVOO8X9SumP-12">
          <mxGeometry relative="1" as="geometry">
            <Array as="points">
              <mxPoint x="250" y="545" />
              <mxPoint x="250" y="545" />
            </Array>
          </mxGeometry>
        </mxCell>
        <mxCell id="VveRp8-pTmVOO8X9SumP-23" value="Y" style="edgeLabel;html=1;align=center;verticalAlign=middle;resizable=0;points=[];" vertex="1" connectable="0" parent="VveRp8-pTmVOO8X9SumP-13">
          <mxGeometry x="-0.2175" y="2" relative="1" as="geometry">
            <mxPoint as="offset" />
          </mxGeometry>
        </mxCell>
        <mxCell id="VveRp8-pTmVOO8X9SumP-10" value="Max=c" style="rhombus;whiteSpace=wrap;html=1;" vertex="1" parent="1">
          <mxGeometry x="355" y="500" width="90" height="90" as="geometry" />
        </mxCell>
        <mxCell id="VveRp8-pTmVOO8X9SumP-15" value="" style="edgeStyle=orthogonalEdgeStyle;rounded=0;orthogonalLoop=1;jettySize=auto;html=1;" edge="1" parent="1" source="VveRp8-pTmVOO8X9SumP-12" target="VveRp8-pTmVOO8X9SumP-14">
          <mxGeometry relative="1" as="geometry">
            <mxPoint x="260" y="510" as="sourcePoint" />
            <mxPoint x="200" y="440" as="targetPoint" />
            <Array as="points">
              <mxPoint x="163" y="450" />
              <mxPoint x="163" y="450" />
            </Array>
          </mxGeometry>
        </mxCell>
        <mxCell id="VveRp8-pTmVOO8X9SumP-12" value="max=c" style="whiteSpace=wrap;html=1;" vertex="1" parent="1">
          <mxGeometry x="90" y="500" width="120" height="60" as="geometry" />
        </mxCell>
        <mxCell id="VveRp8-pTmVOO8X9SumP-19" value="" style="edgeStyle=orthogonalEdgeStyle;rounded=0;orthogonalLoop=1;jettySize=auto;html=1;" edge="1" parent="1" source="VveRp8-pTmVOO8X9SumP-14" target="VveRp8-pTmVOO8X9SumP-18">
          <mxGeometry relative="1" as="geometry" />
        </mxCell>
        <mxCell id="VveRp8-pTmVOO8X9SumP-14" value="in ra số max" style="shape=parallelogram;perimeter=parallelogramPerimeter;whiteSpace=wrap;html=1;fixedSize=1;" vertex="1" parent="1">
          <mxGeometry x="35" y="350" width="170" height="70" as="geometry" />
        </mxCell>
        <mxCell id="VveRp8-pTmVOO8X9SumP-16" value="" style="endArrow=classic;html=1;rounded=0;exitX=0.5;exitY=1;exitDx=0;exitDy=0;entryX=0.097;entryY=1.02;entryDx=0;entryDy=0;entryPerimeter=0;" edge="1" parent="1" source="VveRp8-pTmVOO8X9SumP-10" target="VveRp8-pTmVOO8X9SumP-14">
          <mxGeometry width="50" height="50" relative="1" as="geometry">
            <mxPoint x="390" y="600" as="sourcePoint" />
            <mxPoint x="440" y="550" as="targetPoint" />
            <Array as="points">
              <mxPoint x="51" y="590" />
            </Array>
          </mxGeometry>
        </mxCell>
        <mxCell id="VveRp8-pTmVOO8X9SumP-24" value="N" style="edgeLabel;html=1;align=center;verticalAlign=middle;resizable=0;points=[];" vertex="1" connectable="0" parent="VveRp8-pTmVOO8X9SumP-16">
          <mxGeometry x="-0.4799" y="3" relative="1" as="geometry">
            <mxPoint as="offset" />
          </mxGeometry>
        </mxCell>
        <mxCell id="VveRp8-pTmVOO8X9SumP-18" value="Kết thúc" style="ellipse;whiteSpace=wrap;html=1;" vertex="1" parent="1">
          <mxGeometry x="60" y="160" width="120" height="80" as="geometry" />
        </mxCell>
        <mxCell id="VveRp8-pTmVOO8X9SumP-21" value="" style="endArrow=classic;html=1;rounded=0;" edge="1" parent="1" source="VveRp8-pTmVOO8X9SumP-6" target="VveRp8-pTmVOO8X9SumP-10">
          <mxGeometry width="50" height="50" relative="1" as="geometry">
            <mxPoint x="390" y="400" as="sourcePoint" />
            <mxPoint x="440" y="350" as="targetPoint" />
          </mxGeometry>
        </mxCell>
        <mxCell id="VveRp8-pTmVOO8X9SumP-22" value="N" style="edgeLabel;html=1;align=center;verticalAlign=middle;resizable=0;points=[];" vertex="1" connectable="0" parent="VveRp8-pTmVOO8X9SumP-21">
          <mxGeometry x="-0.1657" y="1" relative="1" as="geometry">
            <mxPoint as="offset" />
          </mxGeometry>
        </mxCell>
      </root>
    </mxGraphModel>
  </diagram>
</mxfile>
